<svg xmlns="http://www.w3.org/2000/svg" xmlns:xlink="http://www.w3.org/1999/xlink" width="1000" zoomAndPan="magnify" viewBox="0 0 750 749.999995" height="1000" preserveAspectRatio="xMidYMid meet" version="1.0"><defs><clipPath id="961320a6c8"><path d="M 104 75 L 646.160156 75 L 646.160156 675 L 104 675 Z M 104 75 " clip-rule="nonzero"/></clipPath><clipPath id="65d938ef56"><path d="M 113 157 L 646.160156 157 L 646.160156 675 L 113 675 Z M 113 157 " clip-rule="nonzero"/></clipPath></defs><g clip-path="url(#961320a6c8)"><path fill="#dd4e4e" d="M 646.09375 532.378906 L 646.09375 650.488281 C 646.09375 663.847656 635.265625 674.679688 621.90625 674.679688 L 241.089844 674.679688 C 226.199219 674.679688 213.757812 668.984375 204.722656 660.179688 L 204.722656 660.191406 L 155.445312 618.578125 C 155.398438 618.539062 155.351562 618.5 155.304688 618.457031 C 155.226562 618.390625 155.15625 618.320312 155.078125 618.253906 C 132.902344 599.035156 128.644531 562 154.460938 539.097656 L 269.414062 437.128906 C 303.300781 406.851562 388.761719 330.703125 389.730469 282.082031 C 361.917969 285.03125 352.976562 305.929688 349.757812 329.90625 C 348.160156 341.796875 337.832031 350.574219 325.835938 350.574219 L 180.941406 350.574219 C 174.84375 350.574219 169.328125 348.308594 165.09375 344.640625 L 165.089844 344.65625 L 113.085938 300.570312 L 113.101562 300.566406 C 107.246094 295.417969 103.910156 287.550781 105.113281 279.148438 C 125.1875 138.839844 197.25 75.320312 352.074219 75.320312 C 425.839844 75.320312 502.308594 103.066406 547.027344 157.101562 C 600.304688 189.058594 638.121094 241.03125 638.121094 312.144531 C 638.121094 377.816406 604.132812 428.546875 556.265625 465.121094 L 568.390625 464.289062 C 575.671875 463.785156 582.363281 466.570312 587.121094 471.316406 L 587.121094 471.304688 L 636.417969 513.03125 L 636.414062 513.03125 C 642.273438 517.433594 646.09375 524.429688 646.09375 532.378906 Z M 646.09375 532.378906 " fill-opacity="1" fill-rule="nonzero"/></g><g clip-path="url(#65d938ef56)"><path fill="#000000" d="M 646.09375 532.378906 L 646.09375 650.488281 C 646.09375 663.847656 635.265625 674.679688 621.90625 674.679688 L 241.089844 674.679688 C 226.199219 674.679688 213.757812 668.984375 204.722656 660.179688 L 204.722656 660.191406 L 155.445312 618.578125 C 164.214844 626.03125 175.71875 630.722656 189.238281 630.722656 L 570.054688 630.722656 C 583.414062 630.722656 594.246094 619.890625 594.246094 606.53125 L 594.246094 488.417969 C 594.246094 481.703125 591.5 475.679688 587.121094 471.316406 L 587.125 471.304688 L 636.421875 513.03125 L 636.417969 513.03125 C 642.273438 517.433594 646.09375 524.429688 646.09375 532.378906 Z M 638.121094 312.148438 C 638.121094 241.03125 600.304688 189.0625 547.027344 157.101562 C 571.316406 186.453125 586.269531 223.527344 586.269531 268.191406 C 586.269531 378.402344 490.5625 446.554688 394.125 476.285156 L 556.265625 465.121094 C 604.132812 428.546875 638.121094 377.820312 638.121094 312.148438 Z M 165.09375 344.640625 C 169.328125 348.308594 174.84375 350.574219 180.941406 350.574219 L 325.835938 350.574219 C 337.835938 350.574219 348.160156 341.796875 349.757812 329.90625 C 352.976562 305.929688 361.921875 285.027344 389.730469 282.082031 C 389.738281 281.804688 389.777344 281.515625 389.777344 281.242188 C 389.777344 256.585938 369.476562 237.734375 344.824219 237.734375 C 311.480469 237.734375 301.382812 260.070312 297.90625 285.949219 C 296.308594 297.839844 285.984375 306.621094 273.984375 306.621094 L 129.089844 306.621094 C 122.925781 306.621094 117.351562 304.304688 113.101562 300.566406 L 113.085938 300.570312 L 165.089844 344.65625 Z M 165.09375 344.640625 " fill-opacity="1" fill-rule="nonzero"/></g><path fill="#dd4e4e" d="M 570.054688 630.722656 C 583.414062 630.722656 594.246094 619.890625 594.246094 606.53125 L 594.246094 488.417969 C 594.246094 481.703125 591.5 475.679688 587.121094 471.316406 C 582.363281 466.570312 575.671875 463.785156 568.394531 464.289062 L 556.265625 465.121094 L 394.128906 476.285156 C 490.5625 446.550781 586.269531 378.398438 586.269531 268.191406 C 586.269531 223.527344 571.316406 186.449219 547.027344 157.101562 C 502.304688 103.066406 425.839844 75.320312 352.074219 75.320312 C 197.25 75.320312 125.1875 138.839844 105.113281 279.148438 C 103.910156 287.550781 107.246094 295.417969 113.101562 300.566406 C 117.351562 304.304688 122.925781 306.621094 129.089844 306.621094 L 273.988281 306.621094 C 285.984375 306.621094 296.3125 297.839844 297.910156 285.949219 C 301.382812 260.070312 311.480469 237.734375 344.824219 237.734375 C 369.476562 237.734375 389.777344 256.585938 389.777344 281.242188 C 389.777344 281.515625 389.738281 281.808594 389.730469 282.082031 C 388.765625 330.699219 303.300781 406.847656 269.417969 437.128906 L 154.460938 539.097656 C 128.644531 562 132.902344 599.035156 155.078125 618.253906 C 155.15625 618.320312 155.226562 618.390625 155.304688 618.457031 C 155.351562 618.5 155.398438 618.539062 155.445312 618.578125 C 164.214844 626.03125 175.71875 630.722656 189.238281 630.722656 Z M 504.894531 610.609375 C 495.671875 610.609375 488.84375 603.074219 488.441406 594.15625 C 488.046875 585.273438 496.289062 577.707031 504.894531 577.707031 C 514.121094 577.707031 520.949219 585.246094 521.347656 594.15625 C 521.746094 603.046875 513.503906 610.609375 504.894531 610.609375 Z M 465.792969 577.707031 C 475.015625 577.707031 481.84375 585.246094 482.246094 594.160156 C 482.640625 603.046875 474.398438 610.613281 465.792969 610.613281 L 328.453125 610.613281 C 319.230469 610.613281 312.398438 603.074219 312 594.160156 C 311.601562 585.277344 319.847656 577.707031 328.453125 577.707031 Z M 465.792969 577.707031 " fill-opacity="1" fill-rule="nonzero"/><path fill="#ecedea" d="M 465.792969 577.707031 C 475.015625 577.707031 481.84375 585.246094 482.246094 594.160156 C 482.640625 603.046875 474.398438 610.613281 465.792969 610.613281 L 328.453125 610.613281 C 319.230469 610.613281 312.398438 603.074219 312 594.160156 C 311.601562 585.277344 319.847656 577.707031 328.453125 577.707031 Z M 504.894531 577.707031 C 496.289062 577.707031 488.046875 585.273438 488.441406 594.160156 C 488.84375 603.074219 495.671875 610.613281 504.894531 610.613281 C 513.5 610.613281 521.746094 603.046875 521.347656 594.160156 C 520.949219 585.246094 514.121094 577.707031 504.894531 577.707031 Z M 504.894531 577.707031 " fill-opacity="1" fill-rule="nonzero"/></svg>