<svg xmlns="http://www.w3.org/2000/svg" xmlns:xlink="http://www.w3.org/1999/xlink" width="1000" zoomAndPan="magnify" viewBox="0 0 750 749.999995" height="1000" preserveAspectRatio="xMidYMid meet" version="1.0"><defs><clipPath id="1488fe0a5b"><path d="M 194.453125 75 L 555.203125 75 L 555.203125 675 L 194.453125 675 Z M 194.453125 75 " clip-rule="nonzero"/></clipPath><clipPath id="4932051395"><path d="M 194.453125 75 L 503 75 L 503 630 L 194.453125 630 Z M 194.453125 75 " clip-rule="nonzero"/></clipPath><clipPath id="8b1aa0eb23"><path d="M 201 81 L 555.203125 81 L 555.203125 675 L 201 675 Z M 201 81 " clip-rule="nonzero"/></clipPath></defs><g clip-path="url(#1488fe0a5b)"><path fill="#8c9b28" d="M 555.339844 142.746094 L 555.339844 652.445312 C 555.339844 664.902344 545.246094 675 532.789062 675 L 348.917969 675 C 343.898438 675 339.277344 673.339844 335.527344 670.566406 L 335.539062 670.605469 L 335.25 670.355469 L 333.507812 668.886719 L 280.425781 623.960938 L 280.476562 623.945312 C 275.929688 619.816406 273.054688 613.878906 273.054688 607.253906 L 273.054688 334.175781 L 272.054688 334.242188 C 271.535156 334.28125 271.015625 334.296875 270.5 334.296875 C 264.808594 334.296875 259.300781 332.144531 255.113281 328.230469 C 255.058594 328.183594 255.015625 328.125 254.960938 328.074219 L 254.964844 328.082031 L 201.804688 283.035156 C 197.234375 278.773438 194.640625 272.804688 194.640625 266.550781 L 194.640625 105.664062 C 194.640625 93.480469 204.316406 83.503906 216.496094 83.125 C 216.496094 83.125 479.246094 75 479.480469 75 C 485.328125 75 490.960938 77.277344 495.175781 81.359375 L 546.917969 125.167969 C 546.917969 125.167969 546.839844 125.1875 546.792969 125.203125 C 547.355469 125.652344 547.960938 126.046875 548.488281 126.554688 C 552.867188 130.800781 555.339844 136.644531 555.339844 142.746094 Z M 555.339844 142.746094 " fill-opacity="1" fill-rule="nonzero"/></g><g clip-path="url(#4932051395)"><path fill="#8c9b28" d="M 479.480469 629.808594 C 491.933594 629.808594 502.03125 619.707031 502.03125 607.253906 L 502.03125 97.554688 C 502.03125 91.453125 499.558594 85.609375 495.175781 81.359375 C 490.960938 77.277344 485.328125 75 479.480469 75 C 479.246094 75 216.496094 83.125 216.496094 83.125 C 204.316406 83.503906 194.640625 93.480469 194.640625 105.664062 L 194.640625 266.550781 C 194.640625 272.804688 197.234375 278.773438 201.804688 283.039062 C 205.992188 286.953125 211.5 289.105469 217.191406 289.105469 C 217.707031 289.105469 218.226562 289.085938 218.742188 289.050781 L 249.710938 286.914062 L 273.054688 285.304688 L 273.054688 607.253906 C 273.054688 613.878906 275.925781 619.816406 280.476562 623.945312 C 284.480469 627.574219 289.777344 629.808594 295.605469 629.808594 Z M 464.441406 258.191406 C 473.925781 258.191406 480.949219 265.945312 481.359375 275.109375 C 481.765625 284.242188 473.292969 292.023438 464.441406 292.023438 C 454.960938 292.023438 447.9375 284.273438 447.527344 275.109375 C 447.121094 265.972656 455.59375 258.191406 464.441406 258.191406 Z M 447.527344 324.992188 C 447.527344 315.511719 455.28125 308.488281 464.445312 308.078125 C 473.578125 307.671875 481.359375 316.148438 481.359375 324.992188 L 481.359375 455.53125 C 481.359375 465.015625 473.609375 472.035156 464.445312 472.449219 C 455.308594 472.859375 447.527344 464.382812 447.527344 455.53125 Z M 447.527344 324.992188 " fill-opacity="1" fill-rule="nonzero"/></g><path fill="#ecedea" d="M 447.527344 455.535156 L 447.527344 324.992188 C 447.527344 315.511719 455.28125 308.488281 464.445312 308.078125 C 473.578125 307.671875 481.359375 316.148438 481.359375 324.992188 L 481.359375 455.53125 C 481.359375 465.015625 473.609375 472.035156 464.445312 472.449219 C 455.308594 472.859375 447.527344 464.382812 447.527344 455.535156 Z M 464.441406 292.023438 C 473.289062 292.023438 481.765625 284.242188 481.359375 275.109375 C 480.949219 265.945312 473.925781 258.191406 464.441406 258.191406 C 455.59375 258.191406 447.117188 265.972656 447.527344 275.109375 C 447.9375 284.273438 454.960938 292.023438 464.441406 292.023438 Z M 464.441406 292.023438 " fill-opacity="1" fill-rule="nonzero"/><g clip-path="url(#8b1aa0eb23)"><path fill="#000000" d="M 273.054688 285.304688 L 273.054688 334.175781 L 272.054688 334.242188 C 271.535156 334.28125 271.015625 334.296875 270.5 334.296875 C 264.808594 334.296875 259.300781 332.144531 255.113281 328.230469 C 255.058594 328.183594 255.015625 328.125 254.960938 328.074219 L 254.964844 328.082031 L 201.804688 283.035156 C 205.992188 286.949219 211.5 289.105469 217.191406 289.105469 C 217.707031 289.105469 218.226562 289.085938 218.742188 289.046875 L 249.710938 286.914062 Z M 548.488281 126.554688 C 547.960938 126.046875 547.355469 125.652344 546.792969 125.203125 C 546.839844 125.1875 546.917969 125.167969 546.917969 125.167969 L 495.175781 81.359375 C 499.558594 85.609375 502.03125 91.453125 502.03125 97.554688 L 502.03125 607.253906 C 502.03125 619.707031 491.933594 629.808594 479.480469 629.808594 L 295.609375 629.808594 C 289.777344 629.808594 284.480469 627.574219 280.476562 623.941406 L 280.425781 623.960938 L 333.507812 668.882812 L 335.25 670.355469 L 335.539062 670.601562 L 335.527344 670.566406 C 339.277344 673.339844 343.898438 675 348.917969 675 L 532.789062 675 C 545.242188 675 555.339844 664.902344 555.339844 652.445312 L 555.339844 142.746094 C 555.339844 136.644531 552.867188 130.800781 548.488281 126.554688 Z M 548.488281 126.554688 " fill-opacity="1" fill-rule="nonzero"/></g></svg>