<svg xmlns="http://www.w3.org/2000/svg" xmlns:xlink="http://www.w3.org/1999/xlink" width="1000" zoomAndPan="magnify" viewBox="0 0 750 749.999995" height="1000" preserveAspectRatio="xMidYMid meet" version="1.0"><defs><clipPath id="c568caf569"><path d="M 112.007812 77.375 L 637.757812 77.375 L 637.757812 672.875 L 112.007812 672.875 Z M 112.007812 77.375 " clip-rule="nonzero"/></clipPath><clipPath id="dca93766b7"><path d="M 120 85 L 637.757812 85 L 637.757812 672.875 L 120 672.875 Z M 120 85 " clip-rule="nonzero"/></clipPath><clipPath id="bb486e42a0"><path d="M 112.007812 77.375 L 588 77.375 L 588 630 L 112.007812 630 Z M 112.007812 77.375 " clip-rule="nonzero"/></clipPath></defs><g clip-path="url(#c568caf569)"><path fill="#8c9b28" d="M 575.128906 346.660156 L 532.011719 309.902344 L 532.011719 309.90625 C 512.761719 293.109375 489.507812 280.472656 463.921875 272.667969 L 583.417969 272.667969 C 595.269531 272.667969 604.871094 263.0625 604.871094 251.210938 L 604.871094 142.21875 C 604.871094 136.355469 602.515625 131.046875 598.703125 127.175781 L 598.699219 127.167969 C 597.746094 126.203125 596.707031 125.332031 595.589844 124.558594 L 549.476562 85.867188 C 545.546875 80.941406 539.5 77.769531 532.703125 77.769531 L 203.351562 77.769531 C 192.714844 77.769531 183.683594 85.5625 182.128906 96.085938 L 144.777344 348.488281 C 143.105469 359.785156 147.285156 370.121094 154.648438 377.125 C 154.691406 377.167969 154.730469 377.214844 154.773438 377.257812 C 155.292969 377.742188 155.851562 378.183594 156.402344 378.640625 L 206.09375 420.820312 L 206.09375 420.792969 C 213.644531 427.554688 224.273438 430.929688 235.402344 428.484375 C 266.949219 421.558594 299.644531 418.09375 332.023438 418.09375 C 345.726562 418.09375 368.605469 420.078125 389.847656 426.09375 C 389.929688 427.082031 390.015625 428.066406 390.015625 429.09375 C 390.015625 471.570312 327.382812 483.089844 294.265625 483.089844 C 257.863281 483.089844 199.441406 467.765625 157.648438 450.398438 C 144.6875 445.011719 130.121094 453.15625 128.082031 467.042969 L 113.070312 569.101562 C 111.960938 576.644531 114.945312 583.976562 120.542969 588.664062 L 120.511719 588.671875 L 168.765625 629.230469 L 168.773438 629.203125 C 171.003906 631.796875 173.851562 633.902344 177.210938 635.21875 C 232.449219 656.855469 326.558594 672.222656 378.097656 672.222656 C 493.285156 672.222656 637.988281 609.589844 637.988281 476.402344 C 637.988281 420.988281 613.289062 376.28125 575.128906 346.660156 Z M 575.128906 346.660156 " fill-opacity="1" fill-rule="nonzero"/></g><g clip-path="url(#dca93766b7)"><path fill="#000000" d="M 637.988281 476.402344 C 637.988281 609.589844 493.285156 672.222656 378.097656 672.222656 C 326.558594 672.222656 232.449219 656.855469 177.210938 635.21875 C 173.851562 633.902344 171.007812 631.796875 168.773438 629.203125 L 168.765625 629.230469 L 120.511719 588.671875 L 120.542969 588.664062 C 122.292969 590.128906 124.28125 591.351562 126.496094 592.222656 C 181.734375 613.859375 275.84375 629.230469 327.382812 629.230469 C 442.570312 629.230469 587.273438 566.597656 587.273438 433.410156 C 587.273438 381.761719 565.820312 339.410156 532.011719 309.90625 L 532.011719 309.902344 L 575.128906 346.660156 C 613.289062 376.28125 637.988281 420.988281 637.988281 476.402344 Z M 281.308594 375.097656 C 248.929688 375.097656 216.234375 378.5625 184.683594 385.492188 C 174.042969 387.828125 163.875 384.820312 156.402344 378.640625 L 206.09375 420.820312 L 206.09375 420.792969 C 213.644531 427.554688 224.273438 430.929688 235.402344 428.484375 C 266.949219 421.558594 299.644531 418.09375 332.023438 418.09375 C 345.726562 418.09375 368.605469 420.078125 389.847656 426.09375 C 386.371094 384.730469 311.539062 375.097656 281.308594 375.097656 Z M 554.15625 208.21875 C 554.15625 220.070312 544.550781 229.671875 532.703125 229.671875 L 321.621094 229.671875 C 318.023438 250.554688 309.382812 292.308594 309.382812 292.308594 C 327.382812 268.550781 374.179688 263.511719 401.535156 263.511719 C 423.199219 263.511719 444.25 266.664062 463.921875 272.664062 L 583.417969 272.664062 C 595.269531 272.664062 604.871094 263.058594 604.871094 251.210938 L 604.871094 142.21875 C 604.871094 136.355469 602.515625 131.046875 598.703125 127.175781 L 598.699219 127.167969 C 597.746094 126.203125 596.707031 125.332031 595.589844 124.558594 L 549.476562 85.867188 C 552.398438 89.535156 554.15625 94.171875 554.15625 99.226562 Z M 554.15625 208.21875 " fill-opacity="1" fill-rule="nonzero"/></g><g clip-path="url(#bb486e42a0)"><path fill="#8c9b28" d="M 327.382812 629.230469 C 442.570312 629.230469 587.273438 566.597656 587.273438 433.410156 C 587.273438 381.761719 565.820312 339.410156 532.007812 309.90625 C 512.761719 293.109375 489.507812 280.472656 463.921875 272.667969 C 444.246094 266.664062 423.199219 263.511719 401.53125 263.511719 C 374.175781 263.511719 327.382812 268.550781 309.382812 292.308594 C 309.382812 292.308594 318.023438 250.554688 321.621094 229.675781 L 532.703125 229.675781 C 544.550781 229.675781 554.15625 220.070312 554.15625 208.21875 L 554.15625 99.226562 C 554.15625 94.171875 552.398438 89.535156 549.472656 85.867188 C 545.546875 80.941406 539.5 77.769531 532.703125 77.769531 L 203.351562 77.769531 C 192.714844 77.769531 183.683594 85.5625 182.128906 96.085938 L 144.777344 348.488281 C 143.105469 359.785156 147.285156 370.121094 154.648438 377.125 C 154.691406 377.167969 154.730469 377.214844 154.773438 377.257812 C 155.292969 377.742188 155.851562 378.183594 156.402344 378.640625 C 163.875 384.820312 174.042969 387.828125 184.683594 385.492188 C 216.234375 378.5625 248.929688 375.097656 281.308594 375.097656 C 311.539062 375.097656 386.371094 384.730469 389.847656 426.09375 C 389.929688 427.078125 390.015625 428.066406 390.015625 429.089844 C 390.015625 471.570312 327.382812 483.085938 294.265625 483.085938 C 257.863281 483.085938 199.441406 467.765625 157.644531 450.398438 C 144.6875 445.011719 130.121094 453.15625 128.078125 467.039062 L 113.070312 569.101562 C 111.960938 576.644531 114.945312 583.976562 120.542969 588.664062 C 122.289062 590.128906 124.277344 591.355469 126.496094 592.222656 C 181.734375 613.859375 275.839844 629.230469 327.382812 629.230469 Z M 560.699219 478.710938 C 548.390625 515.734375 521.789062 544.191406 489.398438 565.023438 C 481.824219 569.890625 471.9375 566.320312 467.378906 559.25 C 462.53125 551.730469 466.082031 541.78125 473.152344 537.234375 C 477.1875 534.640625 481.148438 531.941406 485 529.089844 C 485.160156 528.96875 485.828125 528.464844 486.351562 528.070312 C 486.867188 527.667969 487.582031 527.101562 487.746094 526.96875 C 489.515625 525.546875 491.253906 524.089844 492.96875 522.601562 C 499.078125 517.285156 504.816406 511.527344 510.027344 505.324219 C 510.765625 504.445312 511.480469 503.554688 512.207031 502.664062 C 512.214844 502.648438 512.21875 502.648438 512.226562 502.636719 C 513.296875 501.164062 514.386719 499.707031 515.417969 498.207031 C 517.625 495.007812 519.6875 491.707031 521.59375 488.320312 C 523.449219 485.019531 525.148438 481.640625 526.695312 478.1875 C 526.910156 477.316406 527.210938 476.710938 527.238281 476.773438 C 527.382812 476.449219 527.535156 476.125 527.652344 475.820312 C 528.371094 473.949219 529.03125 472.058594 529.664062 470.15625 C 532.507812 461.597656 540.582031 456.898438 549.457031 458.917969 C 557.628906 460.777344 563.355469 470.71875 560.699219 478.710938 Z M 551.296875 441.386719 C 542.277344 441.386719 535.597656 434.015625 535.207031 425.296875 C 534.816406 416.605469 542.878906 409.203125 551.296875 409.203125 C 560.320312 409.203125 566.996094 416.578125 567.390625 425.296875 C 567.777344 433.988281 559.714844 441.386719 551.296875 441.386719 Z M 551.296875 441.386719 " fill-opacity="1" fill-rule="nonzero"/></g><path fill="#ecedea" d="M 560.699219 478.710938 C 548.390625 515.734375 521.789062 544.191406 489.398438 565.023438 C 481.824219 569.890625 471.9375 566.320312 467.378906 559.25 C 462.53125 551.730469 466.082031 541.78125 473.152344 537.234375 C 477.1875 534.640625 481.148438 531.941406 485 529.089844 C 485.160156 528.96875 485.828125 528.464844 486.351562 528.070312 C 486.867188 527.667969 487.582031 527.101562 487.746094 526.96875 C 489.515625 525.546875 491.253906 524.089844 492.96875 522.601562 C 499.078125 517.285156 504.816406 511.527344 510.027344 505.324219 C 510.765625 504.445312 511.480469 503.554688 512.207031 502.664062 C 512.214844 502.648438 512.21875 502.648438 512.226562 502.636719 C 513.296875 501.164062 514.386719 499.707031 515.417969 498.207031 C 517.625 495.007812 519.6875 491.707031 521.59375 488.320312 C 523.449219 485.019531 525.148438 481.640625 526.695312 478.1875 C 526.679688 478.246094 526.664062 478.296875 526.648438 478.359375 C 526.671875 478.257812 526.730469 478.152344 526.761719 478.050781 C 526.761719 478.042969 526.765625 478.039062 526.769531 478.03125 C 527.148438 477.179688 527.257812 476.820312 527.238281 476.773438 C 527.382812 476.449219 527.535156 476.125 527.652344 475.820312 C 528.371094 473.949219 529.03125 472.058594 529.664062 470.15625 C 532.507812 461.597656 540.582031 456.898438 549.457031 458.917969 C 557.628906 460.777344 563.355469 470.71875 560.699219 478.710938 Z M 551.296875 409.207031 C 542.878906 409.207031 534.816406 416.605469 535.207031 425.296875 C 535.59375 434.015625 542.277344 441.390625 551.296875 441.390625 C 559.714844 441.390625 567.777344 433.988281 567.390625 425.296875 C 566.996094 416.578125 560.320312 409.207031 551.296875 409.207031 Z M 551.296875 409.207031 " fill-opacity="1" fill-rule="nonzero"/></svg>