<svg xmlns="http://www.w3.org/2000/svg" xmlns:xlink="http://www.w3.org/1999/xlink" width="1000" zoomAndPan="magnify" viewBox="0 0 750 749.999995" height="1000" preserveAspectRatio="xMidYMid meet" version="1.0"><defs><clipPath id="d04e524433"><path d="M 100.636719 75 L 649.636719 75 L 649.636719 675 L 100.636719 675 Z M 100.636719 75 " clip-rule="nonzero"/></clipPath><clipPath id="46cb14ec18"><path d="M 153 134 L 649.636719 134 L 649.636719 675 L 153 675 Z M 153 134 " clip-rule="nonzero"/></clipPath><clipPath id="5187a1c05f"><path d="M 100.636719 75 L 598 75 L 598 631 L 100.636719 631 Z M 100.636719 75 " clip-rule="nonzero"/></clipPath></defs><g clip-path="url(#d04e524433)"><path fill="#dd4e4e" d="M 584.914062 387.996094 C 615.363281 365.488281 633.550781 330.574219 633.550781 291.050781 C 633.550781 244.820312 614.746094 205.449219 578.835938 175.582031 L 578.859375 175.578125 L 530.90625 134.960938 L 530.867188 135.03125 C 521.371094 126.640625 510.65625 118.917969 498.605469 112 C 457.6875 88.503906 403.195312 75 349.066406 75 C 294.9375 75 240.40625 88.503906 199.492188 112 C 145.179688 143.179688 116.488281 189.878906 116.488281 247.046875 C 116.488281 286.570312 134.675781 321.484375 165.089844 343.996094 C 125.34375 368.550781 100.675781 410.894531 100.675781 458.984375 C 100.675781 507.046875 121.09375 544.355469 153.582031 571.765625 L 153.566406 571.773438 L 199.515625 610.503906 L 199.519531 610.472656 C 247.019531 654.472656 324.203125 675 400.972656 675 C 524.597656 675 649.324219 621.820312 649.324219 502.988281 C 649.324219 454.898438 624.65625 412.554688 584.914062 387.996094 Z M 384.683594 269.851562 C 381.953125 279.957031 374.824219 288.230469 365.8125 292.90625 C 368.804688 282.667969 375.609375 274.398438 384.683594 269.851562 Z M 397.742188 439.222656 C 397.742188 466.230469 377.953125 487.8125 352.691406 489.722656 C 352.4375 487.59375 352.257812 485.433594 352.257812 483.222656 C 352.257812 457.5 374.402344 438.375 397.597656 436.660156 C 397.648438 437.511719 397.742188 438.351562 397.742188 439.222656 Z M 397.742188 439.222656 " fill-opacity="1" fill-rule="nonzero"/></g><g clip-path="url(#46cb14ec18)"><path fill="#000000" d="M 352.691406 489.722656 C 351.492188 489.8125 350.292969 489.910156 349.066406 489.910156 C 322.054688 489.910156 300.355469 467.515625 300.355469 439.222656 C 300.355469 412.25 324.691406 392.488281 349.066406 392.488281 C 372.617188 392.488281 396.101562 411.019531 397.597656 436.660156 C 374.402344 438.375 352.257812 457.5 352.257812 483.222656 C 352.257812 485.4375 352.4375 487.59375 352.691406 489.722656 Z M 584.914062 387.996094 C 615.363281 365.488281 633.550781 330.574219 633.550781 291.050781 C 633.550781 244.820312 614.746094 205.449219 578.835938 175.582031 L 578.859375 175.578125 L 530.90625 134.960938 L 530.867188 135.03125 C 564.175781 164.460938 581.648438 202.5625 581.648438 247.046875 C 581.648438 286.570312 563.460938 321.484375 533.007812 343.996094 C 572.753906 368.550781 597.421875 410.894531 597.421875 458.988281 C 597.421875 577.820312 472.695312 630.996094 349.070312 630.996094 C 275.441406 630.996094 201.421875 612.125 153.582031 571.765625 L 153.566406 571.773438 L 199.515625 610.503906 L 199.523438 610.476562 C 247.019531 654.472656 324.203125 675 400.972656 675 C 524.597656 675 649.324219 621.820312 649.324219 502.988281 C 649.324219 454.898438 624.65625 412.554688 584.914062 387.996094 Z M 349.066406 222.015625 C 327.988281 222.015625 312.214844 239.140625 312.214844 260.84375 C 312.214844 281.265625 329.964844 297.074219 349.066406 297.074219 C 354.933594 297.074219 360.671875 295.570312 365.8125 292.90625 C 368.804688 282.667969 375.609375 274.398438 384.683594 269.851562 C 385.457031 266.976562 385.921875 263.976562 385.921875 260.84375 C 385.921875 239.140625 370.109375 222.015625 349.066406 222.015625 Z M 349.066406 222.015625 " fill-opacity="1" fill-rule="nonzero"/></g><g clip-path="url(#5187a1c05f)"><path fill="#dd4e4e" d="M 349.066406 630.996094 C 472.695312 630.996094 597.421875 577.820312 597.421875 458.988281 C 597.421875 410.898438 572.753906 368.554688 533.007812 343.996094 C 563.457031 321.484375 581.648438 286.570312 581.648438 247.046875 C 581.648438 202.5625 564.175781 164.460938 530.863281 135.03125 C 521.371094 126.640625 510.65625 118.917969 498.605469 112 C 457.6875 88.503906 403.195312 75 349.066406 75 C 294.9375 75 240.40625 88.503906 199.492188 112 C 145.179688 143.179688 116.488281 189.878906 116.488281 247.046875 C 116.488281 286.570312 134.675781 321.484375 165.089844 343.996094 C 125.34375 368.550781 100.675781 410.894531 100.675781 458.984375 C 100.675781 507.046875 121.09375 544.355469 153.582031 571.765625 C 201.417969 612.125 275.4375 630.996094 349.066406 630.996094 Z M 300.355469 439.222656 C 300.355469 412.25 324.691406 392.488281 349.066406 392.488281 C 372.617188 392.488281 396.101562 411.019531 397.597656 436.660156 C 397.644531 437.511719 397.742188 438.351562 397.742188 439.21875 C 397.742188 466.226562 377.949219 487.8125 352.691406 489.722656 C 351.488281 489.8125 350.289062 489.910156 349.066406 489.910156 C 322.054688 489.910156 300.355469 467.515625 300.355469 439.222656 Z M 384.683594 269.851562 C 381.953125 279.957031 374.824219 288.230469 365.8125 292.90625 C 360.671875 295.570312 354.933594 297.074219 349.066406 297.074219 C 329.964844 297.074219 312.214844 281.265625 312.214844 260.84375 C 312.214844 239.140625 327.988281 222.015625 349.066406 222.015625 C 370.113281 222.015625 385.921875 239.140625 385.921875 260.84375 C 385.921875 263.976562 385.457031 266.976562 384.683594 269.851562 Z M 570.796875 420.519531 C 586.472656 464.738281 573.332031 514.796875 540.84375 547.777344 C 534.386719 554.335938 524.089844 553.773438 517.554688 547.777344 C 510.964844 541.726562 511.5 530.628906 517.554688 524.484375 C 520.316406 521.679688 522.882812 518.738281 525.402344 515.726562 C 525.699219 515.335938 526.742188 514.035156 526.933594 513.761719 C 527.449219 513.046875 527.953125 512.328125 528.445312 511.601562 C 529.683594 509.78125 530.871094 507.925781 531.992188 506.03125 C 533.121094 504.128906 534.191406 502.1875 535.195312 500.214844 C 535.699219 499.222656 536.1875 498.222656 536.660156 497.214844 C 536.789062 496.9375 537.074219 496.289062 537.28125 495.828125 C 538.765625 492.128906 540.054688 488.351562 541.097656 484.507812 C 541.710938 482.234375 542.25 479.945312 542.714844 477.636719 C 542.953125 476.460938 543.132812 475.277344 543.367188 474.101562 C 543.425781 473.8125 543.460938 473.648438 543.496094 473.476562 C 543.5 473.445312 543.5 473.445312 543.5 473.414062 C 544 468.609375 544.355469 463.820312 544.351562 458.984375 C 544.347656 456.160156 544.238281 453.335938 544.007812 450.523438 C 544.015625 450.605469 543.816406 448.683594 543.738281 447.808594 C 543.609375 447.03125 543.339844 445.246094 543.296875 445.007812 C 542.3125 439.644531 540.855469 434.410156 539.035156 429.273438 C 535.953125 420.578125 542.546875 411.601562 550.539062 409.015625 C 559.425781 406.140625 567.925781 412.417969 570.796875 420.519531 Z M 545.664062 386.726562 C 546.0625 395.621094 537.808594 403.195312 529.195312 403.195312 C 519.960938 403.195312 513.125 395.648438 512.726562 386.726562 C 512.328125 377.832031 520.582031 370.257812 529.195312 370.257812 C 538.425781 370.253906 545.265625 377.800781 545.664062 386.726562 Z M 545.664062 386.726562 " fill-opacity="1" fill-rule="nonzero"/></g><path fill="#ecedea" d="M 550.539062 409.019531 C 559.425781 406.140625 567.925781 412.417969 570.796875 420.519531 C 586.472656 464.738281 573.332031 514.796875 540.84375 547.777344 C 534.386719 554.335938 524.089844 553.773438 517.554688 547.777344 C 510.964844 541.726562 511.5 530.628906 517.554688 524.484375 C 520.316406 521.679688 522.882812 518.738281 525.402344 515.726562 C 525.699219 515.335938 526.742188 514.035156 526.933594 513.761719 C 527.449219 513.046875 527.953125 512.328125 528.445312 511.601562 C 529.683594 509.78125 530.871094 507.925781 531.992188 506.03125 C 533.121094 504.128906 534.191406 502.1875 535.195312 500.214844 C 535.699219 499.222656 536.1875 498.222656 536.660156 497.214844 C 536.789062 496.9375 537.074219 496.289062 537.28125 495.828125 C 538.765625 492.128906 540.054688 488.351562 541.097656 484.507812 C 541.710938 482.234375 542.25 479.945312 542.714844 477.636719 C 542.953125 476.460938 543.132812 475.277344 543.367188 474.101562 C 543.425781 473.8125 543.460938 473.648438 543.496094 473.476562 C 543.5 473.445312 543.5 473.445312 543.5 473.414062 C 544 468.609375 544.355469 463.820312 544.351562 458.984375 C 544.347656 456.160156 544.238281 453.335938 544.007812 450.523438 C 544.015625 450.605469 543.816406 448.683594 543.738281 447.808594 C 543.609375 447.03125 543.339844 445.246094 543.296875 445.007812 C 542.3125 439.644531 540.855469 434.410156 539.035156 429.273438 C 535.953125 420.582031 542.546875 411.605469 550.539062 409.019531 Z M 512.722656 386.726562 C 513.125 395.648438 519.960938 403.195312 529.191406 403.195312 C 537.808594 403.195312 546.058594 395.617188 545.660156 386.726562 C 545.261719 377.804688 538.425781 370.257812 529.191406 370.257812 C 520.578125 370.253906 512.328125 377.832031 512.722656 386.726562 Z M 512.722656 386.726562 " fill-opacity="1" fill-rule="nonzero"/></svg>