<svg xmlns="http://www.w3.org/2000/svg" xmlns:xlink="http://www.w3.org/1999/xlink" width="1000" zoomAndPan="magnify" viewBox="0 0 750 749.999995" height="1000" preserveAspectRatio="xMidYMid meet" version="1.0"><defs><clipPath id="a3314899f1"><path d="M 89.824219 77.375 L 659.824219 77.375 L 659.824219 672.875 L 89.824219 672.875 Z M 89.824219 77.375 " clip-rule="nonzero"/></clipPath><clipPath id="289f440241"><path d="M 168 84 L 659.824219 84 L 659.824219 672.875 L 168 672.875 Z M 168 84 " clip-rule="nonzero"/></clipPath><clipPath id="87ad14a86b"><path d="M 89.824219 77.375 L 608 77.375 L 608 629 L 89.824219 629 Z M 89.824219 77.375 " clip-rule="nonzero"/></clipPath></defs><g clip-path="url(#a3314899f1)"><path fill="#dd4e4e" d="M 585.566406 291.257812 C 585.585938 291.253906 585.632812 291.246094 585.632812 291.246094 L 543.144531 255.078125 C 536.777344 249.386719 529.988281 244.160156 522.785156 239.492188 L 612.855469 160.265625 C 619.753906 154.195312 622.171875 144.492188 618.929688 135.894531 C 617.300781 131.582031 614.414062 128 610.78125 125.503906 L 561.855469 84.003906 C 561.855469 84.003906 561.839844 84.042969 561.835938 84.050781 C 557.773438 79.898438 552.167969 77.375 546.097656 77.375 L 308.5625 77.375 C 302.601562 77.375 296.898438 79.769531 292.738281 84.035156 L 180.886719 198.535156 C 119.703125 261.378906 89.9375 325.730469 89.9375 395.230469 C 89.9375 463.867188 116.984375 522.640625 168.113281 565.585938 L 168.027344 565.609375 L 215.699219 605.984375 L 215.710938 605.925781 C 218.234375 608.152344 220.769531 610.371094 223.414062 612.519531 C 271.171875 651.273438 335.210938 672.617188 403.738281 672.617188 C 471.164062 672.617188 533.839844 652.390625 580.21875 615.65625 C 632.445312 574.292969 660.050781 516.113281 660.050781 447.40625 C 660.050781 388.988281 632.972656 327.625 585.566406 291.257812 Z M 360.96875 446.746094 C 360.96875 425.367188 378.789062 406.621094 399.105469 406.621094 C 403.003906 406.621094 406.738281 407.1875 410.289062 408.179688 C 408.972656 435.1875 390.1875 456.304688 363.71875 462.273438 C 361.941406 457.59375 360.96875 452.382812 360.96875 446.746094 Z M 360.96875 446.746094 " fill-opacity="1" fill-rule="nonzero"/></g><g clip-path="url(#289f440241)"><path fill="#000000" d="M 363.71875 462.273438 C 358.800781 463.386719 353.648438 464.035156 348.261719 464.035156 C 312.605469 464.035156 286.703125 438.167969 286.703125 402.519531 C 286.703125 368.78125 314.300781 340.300781 346.933594 340.300781 C 382.550781 340.300781 410.441406 368.78125 410.441406 405.167969 C 410.441406 406.1875 410.339844 407.175781 410.289062 408.183594 C 406.738281 407.191406 403 406.621094 399.105469 406.621094 C 378.789062 406.621094 360.96875 425.371094 360.96875 446.746094 C 360.96875 452.382812 361.941406 457.59375 363.71875 462.273438 Z M 585.566406 291.257812 C 585.585938 291.253906 585.632812 291.246094 585.632812 291.246094 L 543.144531 255.078125 C 584.492188 292.042969 607.871094 348.894531 607.871094 403.179688 C 607.871094 471.871094 580.277344 530.042969 528.03125 571.433594 C 481.671875 608.152344 418.972656 628.386719 351.570312 628.386719 C 283.023438 628.386719 219.003906 607.046875 171.246094 568.269531 C 170.171875 567.394531 169.167969 566.472656 168.113281 565.585938 L 168.027344 565.609375 L 215.699219 605.980469 L 215.710938 605.921875 C 218.230469 608.148438 220.765625 610.371094 223.410156 612.515625 C 271.171875 651.273438 335.210938 672.617188 403.738281 672.617188 C 471.164062 672.617188 533.839844 652.390625 580.21875 615.65625 C 632.445312 574.292969 660.050781 516.113281 660.050781 447.40625 C 660.050781 388.988281 632.972656 327.625 585.566406 291.257812 Z M 560.667969 116.007812 L 448.449219 214.726562 C 476.472656 216.667969 501.414062 225.644531 522.785156 239.492188 L 612.855469 160.265625 C 619.753906 154.195312 622.171875 144.496094 618.929688 135.898438 C 617.300781 131.582031 614.414062 128 610.78125 125.503906 L 561.855469 84.003906 C 561.855469 84.003906 561.839844 84.046875 561.835938 84.054688 C 563.929688 86.191406 565.636719 88.738281 566.738281 91.652344 C 569.976562 100.261719 567.582031 109.976562 560.667969 116.007812 Z M 560.667969 116.007812 " fill-opacity="1" fill-rule="nonzero"/></g><g clip-path="url(#87ad14a86b)"><path fill="#dd4e4e" d="M 351.570312 628.390625 C 418.976562 628.390625 481.671875 608.152344 528.03125 571.433594 C 580.277344 530.042969 607.871094 471.871094 607.871094 403.179688 C 607.871094 348.894531 584.496094 292.042969 543.148438 255.082031 C 536.777344 249.386719 529.988281 244.160156 522.789062 239.492188 C 501.417969 225.644531 476.472656 216.667969 448.449219 214.726562 L 560.667969 116.007812 C 567.585938 109.976562 569.976562 100.261719 566.738281 91.652344 C 565.640625 88.738281 563.929688 86.191406 561.835938 84.054688 C 557.773438 79.898438 552.167969 77.375 546.097656 77.375 L 308.5625 77.375 C 302.601562 77.375 296.898438 79.769531 292.738281 84.035156 L 180.886719 198.535156 C 119.703125 261.378906 89.9375 325.730469 89.9375 395.230469 C 89.9375 463.867188 116.984375 522.640625 168.113281 565.585938 C 169.171875 566.472656 170.171875 567.398438 171.25 568.269531 C 219.007812 607.050781 283.027344 628.390625 351.570312 628.390625 Z M 584.746094 438.746094 C 579.074219 474.820312 562.714844 507.972656 538.027344 534.820312 C 531.765625 541.628906 520.992188 540.675781 514.613281 534.820312 C 507.832031 528.597656 508.75 517.78125 514.613281 511.402344 C 517.535156 508.222656 520.34375 504.957031 523.050781 501.589844 C 523.121094 501.5 523.148438 501.460938 523.210938 501.382812 C 523.730469 500.679688 524.257812 499.984375 524.769531 499.28125 C 526.019531 497.566406 527.234375 495.824219 528.414062 494.0625 C 532.726562 487.632812 536.574219 480.894531 539.914062 473.910156 C 540.417969 472.851562 540.914062 471.789062 541.394531 470.71875 C 541.449219 470.597656 541.671875 470.105469 541.871094 469.65625 C 542.082031 469.152344 542.425781 468.34375 542.488281 468.183594 C 542.839844 467.308594 543.183594 466.429688 543.519531 465.546875 C 544.953125 461.773438 546.25 457.953125 547.410156 454.089844 C 549.777344 446.171875 551.53125 438.101562 552.8125 429.941406 C 554.25 420.792969 565.253906 416.574219 573.179688 418.378906 C 582.570312 420.519531 586.085938 430.226562 584.746094 438.746094 Z M 586.953125 388.765625 C 587.351562 397.707031 579.054688 405.320312 570.394531 405.320312 C 561.113281 405.320312 554.238281 397.738281 553.835938 388.765625 C 553.4375 379.824219 561.734375 372.207031 570.394531 372.207031 C 579.679688 372.207031 586.550781 379.792969 586.953125 388.765625 Z M 348.261719 464.035156 C 312.605469 464.035156 286.703125 438.167969 286.703125 402.515625 C 286.703125 368.777344 314.300781 340.300781 346.933594 340.300781 C 382.550781 340.300781 410.441406 368.777344 410.441406 405.167969 C 410.441406 406.1875 410.339844 407.175781 410.289062 408.179688 C 408.972656 435.1875 390.1875 456.304688 363.71875 462.273438 C 358.800781 463.386719 353.648438 464.035156 348.261719 464.035156 Z M 348.261719 464.035156 " fill-opacity="1" fill-rule="nonzero"/></g><path fill="#ecedea" d="M 573.179688 418.378906 C 565.253906 416.574219 554.253906 420.792969 552.816406 429.941406 C 551.53125 438.101562 549.78125 446.171875 547.410156 454.089844 C 546.253906 457.953125 544.957031 461.773438 543.519531 465.546875 C 543.183594 466.429688 542.84375 467.308594 542.492188 468.183594 C 542.425781 468.34375 542.085938 469.152344 541.875 469.65625 C 541.671875 470.105469 541.449219 470.597656 541.398438 470.71875 C 540.914062 471.789062 540.421875 472.851562 539.914062 473.910156 C 536.574219 480.894531 532.726562 487.632812 528.417969 494.0625 C 527.234375 495.824219 526.019531 497.566406 524.769531 499.28125 C 524.257812 499.988281 523.730469 500.679688 523.214844 501.382812 C 523.152344 501.460938 523.121094 501.5 523.050781 501.589844 C 520.34375 504.957031 517.535156 508.222656 514.613281 511.402344 C 508.75 517.78125 507.835938 528.597656 514.613281 534.820312 C 520.996094 540.675781 531.765625 541.628906 538.027344 534.820312 C 562.714844 507.972656 579.074219 474.820312 584.746094 438.746094 C 586.085938 430.226562 582.570312 420.519531 573.179688 418.378906 Z M 523.226562 501.367188 C 523.898438 500.457031 523.898438 500.515625 523.226562 501.367188 Z M 570.394531 372.207031 C 579.679688 372.207031 586.550781 379.792969 586.953125 388.765625 C 587.351562 397.707031 579.054688 405.320312 570.394531 405.320312 C 561.113281 405.320312 554.242188 397.738281 553.839844 388.765625 C 553.4375 379.824219 561.734375 372.207031 570.394531 372.207031 Z M 570.394531 372.207031 " fill-opacity="1" fill-rule="nonzero"/></svg>