<svg xmlns="http://www.w3.org/2000/svg" xmlns:xlink="http://www.w3.org/1999/xlink" width="1000" zoomAndPan="magnify" viewBox="0 0 750 749.999995" height="1000" preserveAspectRatio="xMidYMid meet" version="1.0"><defs><clipPath id="d2c138a25f"><path d="M 85.121094 79.753906 L 664.871094 79.753906 L 664.871094 670.003906 L 85.121094 670.003906 Z M 85.121094 79.753906 " clip-rule="nonzero"/></clipPath><clipPath id="4da35d96d0"><path d="M 93 85 L 664.871094 85 L 664.871094 670.003906 L 93 670.003906 Z M 93 85 " clip-rule="nonzero"/></clipPath><clipPath id="dc0acb72c5"><path d="M 85.121094 79.753906 L 614 79.753906 L 614 626 L 85.121094 626 Z M 85.121094 79.753906 " clip-rule="nonzero"/></clipPath></defs><g clip-path="url(#d2c138a25f)"><path fill="#dd4e4e" d="M 664.890625 411.875 L 664.890625 552.863281 C 664.890625 559.078125 662.300781 564.957031 657.753906 569.175781 C 653.648438 572.984375 648.25 575.054688 642.699219 575.054688 C 642.109375 575.054688 641.515625 575.054688 640.960938 575.015625 L 598.167969 571.652344 L 601.683594 646.957031 C 601.941406 653.023438 599.726562 658.941406 595.546875 663.339844 C 591.363281 667.707031 585.558594 670.183594 579.492188 670.183594 L 406.546875 670.183594 C 401.367188 670.183594 396.410156 668.347656 392.453125 665.089844 L 392.449219 665.101562 L 392.355469 665.019531 C 392.113281 664.816406 391.875 664.605469 391.636719 664.394531 L 342.039062 621.195312 L 342.042969 621.191406 C 341.042969 620.433594 340.085938 619.613281 339.210938 618.6875 C 335.03125 614.210938 332.886719 608.179688 333.292969 602.078125 L 335.316406 571.371094 C 267.070312 572.792969 158.550781 575.054688 158.449219 575.054688 C 153.476562 575.054688 148.699219 573.386719 144.828125 570.359375 L 144.828125 570.371094 L 144.742188 570.296875 C 144.25 569.90625 143.777344 569.488281 143.3125 569.050781 L 93.988281 526.117188 L 93.996094 526.113281 C 93.238281 525.539062 92.5 524.933594 91.816406 524.261719 C 87.523438 520.082031 85.121094 514.386719 85.121094 508.394531 L 85.121094 376.726562 C 85.121094 371.917969 86.671875 367.257812 89.558594 363.414062 L 295.089844 88.722656 C 299.265625 83.097656 305.851562 79.804688 312.839844 79.804688 L 528.355469 79.804688 C 534.199219 79.804688 539.488281 82.078125 543.449219 85.757812 C 543.449219 85.757812 543.453125 85.75 543.453125 85.75 L 592.414062 128.445312 C 593.554688 129.265625 594.613281 130.1875 595.582031 131.207031 L 595.613281 131.238281 L 595.605469 131.238281 C 599.363281 135.214844 601.679688 140.566406 601.679688 146.464844 L 601.679688 347.761719 C 603.460938 348.675781 605.164062 349.75 606.652344 351.128906 L 657.789062 395.601562 C 662.300781 399.816406 664.890625 405.699219 664.890625 411.875 Z M 664.890625 411.875 " fill-opacity="1" fill-rule="nonzero"/><path fill="#ecedea" d="M 657.789062 395.601562 L 606.652344 351.132812 C 605.164062 349.75 603.460938 348.675781 601.683594 347.761719 L 601.683594 146.46875 C 601.683594 140.570312 599.367188 135.214844 595.609375 131.238281 L 595.613281 131.238281 L 595.582031 131.210938 C 594.617188 130.191406 593.558594 129.269531 592.414062 128.445312 L 543.457031 85.75 C 543.457031 85.75 543.449219 85.757812 543.449219 85.757812 C 539.488281 82.078125 534.199219 79.804688 528.355469 79.804688 L 312.839844 79.804688 C 305.847656 79.804688 299.265625 83.097656 295.085938 88.722656 L 89.558594 363.414062 C 86.671875 367.257812 85.121094 371.917969 85.121094 376.726562 L 85.121094 508.394531 C 85.121094 514.386719 87.523438 520.082031 91.816406 524.261719 C 92.5 524.933594 93.238281 525.539062 93.996094 526.113281 L 93.988281 526.117188 L 143.3125 569.054688 C 143.777344 569.488281 144.25 569.90625 144.746094 570.300781 L 144.828125 570.371094 L 144.828125 570.359375 C 148.699219 573.386719 153.476562 575.054688 158.449219 575.054688 C 158.550781 575.054688 267.070312 572.796875 335.320312 571.375 L 333.292969 602.082031 C 332.886719 608.183594 335.03125 614.210938 339.210938 618.6875 C 340.085938 619.613281 341.042969 620.4375 342.042969 621.195312 L 342.039062 621.195312 L 391.640625 664.394531 C 391.875 664.605469 392.113281 664.816406 392.359375 665.019531 L 392.453125 665.101562 L 392.453125 665.09375 C 396.414062 668.347656 401.367188 670.183594 406.550781 670.183594 L 579.492188 670.183594 C 585.5625 670.183594 591.367188 667.707031 595.546875 663.339844 C 599.726562 658.941406 601.945312 653.023438 601.683594 646.957031 L 598.171875 571.652344 L 640.964844 575.019531 C 641.519531 575.054688 642.109375 575.054688 642.703125 575.054688 C 648.25 575.054688 653.648438 572.984375 657.753906 569.175781 C 662.304688 564.957031 664.894531 559.078125 664.894531 552.863281 L 664.894531 411.875 C 664.890625 405.699219 662.300781 399.816406 657.789062 395.601562 Z M 657.789062 395.601562 " fill-opacity="1" fill-rule="nonzero"/></g><g clip-path="url(#4da35d96d0)"><path fill="#000000" d="M 361.664062 372.085938 L 273.597656 376.726562 L 273.597656 374.0625 C 273.597656 374.0625 358.738281 268.285156 366.0625 253.011719 L 362.085938 371.550781 C 361.945312 371.730469 361.804688 371.910156 361.664062 372.085938 Z M 657.789062 395.601562 L 606.652344 351.132812 C 611.167969 355.347656 613.753906 361.230469 613.753906 367.40625 L 613.753906 508.394531 C 613.753906 514.609375 611.167969 520.488281 606.617188 524.707031 C 602.511719 528.515625 597.113281 530.589844 591.566406 530.589844 C 590.972656 530.589844 590.378906 530.589844 589.828125 530.550781 L 547.035156 527.1875 L 550.546875 602.488281 C 550.804688 608.554688 548.589844 614.472656 544.410156 618.871094 C 540.230469 623.238281 534.421875 625.714844 528.355469 625.714844 L 355.410156 625.714844 C 350.542969 625.714844 345.878906 624.089844 342.046875 621.195312 L 342.042969 621.195312 L 391.640625 664.394531 C 391.875 664.609375 392.117188 664.816406 392.359375 665.023438 L 392.453125 665.101562 L 392.453125 665.09375 C 396.414062 668.351562 401.371094 670.183594 406.550781 670.183594 L 579.496094 670.183594 C 585.5625 670.183594 591.367188 667.707031 595.546875 663.34375 C 599.726562 658.941406 601.945312 653.023438 601.6875 646.957031 L 598.171875 571.65625 L 640.964844 575.019531 C 641.519531 575.058594 642.113281 575.058594 642.703125 575.058594 C 648.25 575.058594 653.652344 572.984375 657.757812 569.175781 C 662.304688 564.960938 664.894531 559.078125 664.894531 552.867188 L 664.894531 411.875 C 664.890625 405.699219 662.300781 399.816406 657.789062 395.601562 Z M 107.3125 530.585938 C 102.464844 530.585938 97.8125 528.996094 93.996094 526.113281 L 93.988281 526.117188 L 143.3125 569.054688 C 143.777344 569.488281 144.25 569.90625 144.746094 570.300781 L 144.828125 570.371094 L 144.828125 570.359375 C 148.699219 573.386719 153.476562 575.054688 158.449219 575.054688 C 158.550781 575.054688 267.070312 572.796875 335.320312 571.375 L 338.324219 525.777344 C 338.324219 525.777344 107.460938 530.585938 107.3125 530.585938 Z M 550.546875 101.996094 L 550.546875 348.175781 L 589.9375 345.289062 C 590.453125 345.214844 591.007812 345.214844 591.5625 345.214844 C 595.121094 345.214844 598.5625 346.15625 601.683594 347.761719 L 601.683594 146.46875 C 601.683594 140.570312 599.367188 135.214844 595.609375 131.238281 L 595.613281 131.238281 L 595.582031 131.210938 C 594.617188 130.191406 593.554688 129.269531 592.414062 128.445312 L 543.457031 85.75 C 543.457031 85.75 543.449219 85.757812 543.449219 85.757812 C 547.808594 89.8125 550.546875 95.582031 550.546875 101.996094 Z M 550.546875 101.996094 " fill-opacity="1" fill-rule="nonzero"/></g><g clip-path="url(#dc0acb72c5)"><path fill="#dd4e4e" d="M 528.355469 625.714844 C 534.421875 625.714844 540.226562 623.234375 544.40625 618.871094 C 548.585938 614.46875 550.804688 608.554688 550.546875 602.484375 L 547.03125 527.183594 L 589.824219 530.550781 C 590.378906 530.585938 590.972656 530.585938 591.5625 530.585938 C 597.113281 530.585938 602.511719 528.515625 606.617188 524.703125 C 611.167969 520.488281 613.753906 514.609375 613.753906 508.394531 L 613.753906 367.40625 C 613.753906 361.230469 611.164062 355.347656 606.652344 351.132812 C 605.164062 349.75 603.460938 348.675781 601.679688 347.761719 C 598.5625 346.15625 595.121094 345.214844 591.5625 345.214844 C 591.007812 345.214844 590.453125 345.214844 589.933594 345.289062 L 550.546875 348.175781 L 550.546875 101.996094 C 550.546875 95.582031 547.804688 89.8125 543.449219 85.757812 C 539.488281 82.078125 534.199219 79.804688 528.355469 79.804688 L 312.839844 79.804688 C 305.847656 79.804688 299.265625 83.097656 295.085938 88.722656 L 89.558594 363.414062 C 86.671875 367.257812 85.121094 371.917969 85.121094 376.726562 L 85.121094 508.394531 C 85.121094 514.386719 87.523438 520.082031 91.816406 524.261719 C 92.5 524.933594 93.238281 525.539062 93.996094 526.113281 C 97.8125 528.996094 102.464844 530.585938 107.3125 530.585938 C 107.460938 530.585938 338.324219 525.777344 338.324219 525.777344 L 335.316406 571.375 L 333.292969 602.082031 C 332.886719 608.183594 335.03125 614.210938 339.210938 618.6875 C 340.085938 619.613281 341.042969 620.4375 342.042969 621.195312 C 345.875 624.089844 350.542969 625.714844 355.410156 625.714844 Z M 530.203125 338.070312 C 530.203125 347.402344 522.578125 354.308594 513.5625 354.714844 C 504.574219 355.117188 496.917969 346.777344 496.917969 338.070312 L 496.917969 216.34375 C 496.917969 207.011719 504.542969 200.101562 513.5625 199.699219 C 522.546875 199.296875 530.203125 207.636719 530.203125 216.34375 Z M 513.5625 191.015625 C 504.230469 191.015625 497.320312 183.390625 496.917969 174.371094 C 496.515625 165.382812 504.855469 157.726562 513.5625 157.726562 C 522.890625 157.726562 529.800781 165.355469 530.203125 174.371094 C 530.605469 183.359375 522.265625 191.015625 513.5625 191.015625 Z M 273.597656 374.0625 C 273.597656 374.0625 358.738281 268.285156 366.0625 253.011719 L 362.085938 371.550781 L 362.066406 372.066406 L 361.664062 372.085938 L 273.597656 376.726562 Z M 273.597656 374.0625 " fill-opacity="1" fill-rule="nonzero"/></g><path fill="#ecedea" d="M 530.203125 216.34375 L 530.203125 338.070312 C 530.203125 347.402344 522.578125 354.308594 513.5625 354.714844 C 504.574219 355.117188 496.917969 346.777344 496.917969 338.070312 L 496.917969 216.34375 C 496.917969 207.011719 504.542969 200.101562 513.5625 199.699219 C 522.546875 199.296875 530.203125 207.636719 530.203125 216.34375 Z M 513.5625 157.730469 C 504.855469 157.730469 496.515625 165.382812 496.917969 174.371094 C 497.320312 183.390625 504.230469 191.015625 513.5625 191.015625 C 522.265625 191.015625 530.605469 183.363281 530.203125 174.371094 C 529.800781 165.355469 522.890625 157.730469 513.5625 157.730469 Z M 513.5625 157.730469 " fill-opacity="1" fill-rule="nonzero"/></svg>