<svg xmlns="http://www.w3.org/2000/svg" xmlns:xlink="http://www.w3.org/1999/xlink" width="1000" zoomAndPan="magnify" viewBox="0 0 750 749.999995" height="1000" preserveAspectRatio="xMidYMid meet" version="1.0"><defs><clipPath id="7b85290fa1"><path d="M 104 79.753906 L 646.160156 79.753906 L 646.160156 670.003906 L 104 670.003906 Z M 104 79.753906 " clip-rule="nonzero"/></clipPath><clipPath id="d41677ab46"><path d="M 132 136 L 646.160156 136 L 646.160156 670.003906 L 132 670.003906 Z M 132 136 " clip-rule="nonzero"/></clipPath><clipPath id="57cd360b7f"><path d="M 104 79.753906 L 596 79.753906 L 596 628 L 104 628 Z M 104 79.753906 " clip-rule="nonzero"/></clipPath></defs><g clip-path="url(#7b85290fa1)"><path fill="#8c9b28" d="M 608.039062 402.390625 L 608.085938 402.386719 L 607.441406 401.847656 C 605.601562 400.222656 603.757812 398.667969 601.910156 397.246094 L 570.347656 370.96875 C 603.757812 350.9375 623.535156 313.625 623.535156 274.566406 C 623.535156 234.894531 606.796875 204.15625 581.261719 180.992188 L 581.351562 180.984375 L 579.789062 179.65625 C 578.292969 178.335938 576.765625 177.042969 575.214844 175.773438 L 528.578125 136.144531 L 528.550781 136.167969 C 482.796875 96.328125 410.574219 79.820312 354.246094 79.820312 C 238.289062 79.820312 144.929688 119.851562 126.734375 240.113281 C 125.921875 245.480469 128.199219 250.527344 132.140625 253.566406 L 132.136719 253.566406 L 181.113281 295.023438 L 181.148438 294.976562 C 183.703125 297.542969 187.183594 299.203125 191.148438 299.203125 L 330.898438 299.203125 C 330.554688 300.425781 330.3125 301.691406 330.3125 303.027344 L 330.3125 381.625 C 330.3125 385.421875 331.84375 388.78125 334.234375 391.300781 L 334.09375 391.324219 L 334.808594 391.933594 C 335.011719 392.125 335.230469 392.292969 335.449219 392.476562 L 385.234375 434.695312 C 385.378906 434.832031 385.535156 434.949219 385.6875 435.082031 L 386.425781 435.707031 L 386.441406 435.628906 C 389.195312 437.671875 392.65625 438.800781 396.375 438.425781 C 399.007812 438.160156 401.699219 438.007812 404.429688 437.9375 C 404.722656 440.078125 404.929688 442.242188 404.929688 444.449219 C 404.929688 471.199219 378.886719 493.023438 352.839844 493.023438 C 351.882812 493.023438 350.953125 492.9375 350.015625 492.886719 C 349.578125 491.132812 349.203125 489.359375 348.925781 487.550781 C 348.390625 484.066406 346.511719 481.105469 343.890625 479.03125 L 343.894531 479.023438 L 294.625 437.347656 C 294.117188 436.851562 293.578125 436.390625 293 435.972656 C 292.902344 435.902344 292.800781 435.835938 292.703125 435.769531 C 290.347656 434.160156 287.519531 433.191406 284.519531 433.191406 L 118.925781 433.191406 C 110.433594 433.191406 103.933594 440.597656 104.816406 449.042969 C 109.824219 497.015625 127.734375 533.566406 154.386719 560.746094 C 154.558594 560.925781 154.730469 561.101562 154.90625 561.28125 C 161.359375 567.804688 168.316406 573.78125 175.730469 579.238281 L 213.835938 612.097656 C 214.699219 612.859375 215.570312 613.609375 216.449219 614.351562 L 218.320312 615.964844 L 218.3125 615.875 C 265.507812 654.738281 333.652344 670.171875 406.019531 670.171875 C 510.90625 670.171875 646.058594 630.046875 646.058594 501.226562 C 646.058594 450.40625 627.871094 420.234375 608.039062 402.390625 Z M 384.277344 261.753906 C 381.382812 271.371094 374.816406 279.488281 366.402344 284.308594 C 369.078125 274.476562 375.410156 266.160156 384.277344 261.753906 Z M 384.277344 261.753906 " fill-opacity="1" fill-rule="nonzero"/></g><g clip-path="url(#d41677ab46)"><path fill="#000000" d="M 646.058594 501.226562 C 646.058594 630.046875 510.90625 670.171875 406.019531 670.171875 C 333.652344 670.171875 265.507812 654.738281 218.3125 615.875 L 218.320312 615.964844 L 216.449219 614.351562 C 215.570312 613.609375 214.699219 612.859375 213.835938 612.097656 L 175.730469 579.238281 C 222.480469 613.652344 287.175781 627.472656 355.65625 627.472656 C 460.539062 627.472656 595.695312 587.347656 595.695312 458.53125 C 595.695312 346.730469 507.703125 334.640625 507.703125 334.640625 C 548.53125 317.042969 573.167969 275.511719 573.167969 231.867188 C 573.167969 190.984375 555.414062 159.5625 528.550781 136.167969 L 528.578125 136.144531 L 575.214844 175.773438 C 576.765625 177.042969 578.292969 178.335938 579.789062 179.65625 L 581.351562 180.984375 L 581.261719 180.992188 C 606.792969 204.15625 623.535156 234.894531 623.535156 274.566406 C 623.535156 313.625 603.757812 350.9375 570.347656 370.96875 L 601.910156 397.246094 C 603.761719 398.667969 605.605469 400.222656 607.441406 401.847656 L 608.085938 402.386719 L 608.039062 402.390625 C 627.871094 420.234375 646.058594 450.40625 646.058594 501.226562 Z M 345.800781 288.886719 C 353.171875 289.621094 360.265625 287.832031 366.402344 284.308594 C 369.078125 274.472656 375.410156 266.15625 384.277344 261.753906 C 385.324219 258.285156 385.925781 254.636719 385.925781 250.871094 C 385.925781 229.050781 369.734375 215.675781 348.617188 215.675781 C 330.992188 215.675781 318.417969 228.53125 315.347656 244.601562 C 314.039062 251.433594 308.304688 256.507812 301.347656 256.507812 L 140.78125 256.507812 C 137.503906 256.507812 134.519531 255.398438 132.140625 253.566406 L 132.136719 253.566406 L 181.113281 295.023438 L 181.148438 294.976562 C 183.703125 297.542969 187.183594 299.203125 191.148438 299.203125 L 330.898438 299.203125 C 332.695312 292.792969 338.816406 288.25 345.800781 288.886719 Z M 334.09375 391.324219 L 334.808594 391.933594 C 334.601562 391.738281 334.429688 391.507812 334.234375 391.300781 Z M 356.359375 395.175781 C 352.820312 395.175781 349.382812 395.386719 346.011719 395.730469 C 342.007812 396.132812 338.28125 394.828125 335.449219 392.472656 L 385.234375 434.695312 C 385.378906 434.832031 385.535156 434.949219 385.6875 435.078125 L 386.425781 435.707031 L 386.441406 435.628906 C 389.191406 437.671875 392.65625 438.800781 396.375 438.421875 C 399.007812 438.15625 401.699219 438.007812 404.429688 437.9375 C 401.132812 414.152344 380.253906 395.175781 356.359375 395.175781 Z M 298.5625 444.855469 C 302.503906 470.570312 323.070312 491.5 350.015625 492.890625 C 349.578125 491.136719 349.203125 489.359375 348.925781 487.554688 C 348.390625 484.066406 346.507812 481.105469 343.886719 479.03125 L 343.894531 479.027344 L 294.621094 437.351562 C 296.648438 439.332031 298.105469 441.894531 298.5625 444.855469 Z M 298.5625 444.855469 " fill-opacity="1" fill-rule="nonzero"/></g><g clip-path="url(#57cd360b7f)"><path fill="#8c9b28" d="M 355.65625 627.472656 C 460.539062 627.472656 595.695312 587.347656 595.695312 458.53125 C 595.695312 346.730469 507.703125 334.640625 507.703125 334.640625 C 548.53125 317.042969 573.167969 275.511719 573.167969 231.867188 C 573.167969 190.984375 555.414062 159.5625 528.550781 136.167969 C 482.796875 96.328125 410.574219 79.820312 354.246094 79.820312 C 238.289062 79.820312 144.929688 119.851562 126.734375 240.113281 C 125.921875 245.480469 128.199219 250.527344 132.140625 253.566406 C 134.519531 255.402344 137.503906 256.507812 140.78125 256.507812 L 301.347656 256.507812 C 308.304688 256.507812 314.039062 251.433594 315.347656 244.601562 C 318.417969 228.53125 330.992188 215.675781 348.617188 215.675781 C 369.734375 215.675781 385.925781 229.050781 385.925781 250.871094 C 385.925781 254.636719 385.324219 258.285156 384.277344 261.753906 C 381.382812 271.371094 374.816406 279.488281 366.402344 284.3125 C 360.265625 287.832031 353.171875 289.625 345.800781 288.886719 C 338.816406 288.25 332.695312 292.792969 330.898438 299.203125 C 330.554688 300.425781 330.3125 301.691406 330.3125 303.027344 L 330.3125 381.625 C 330.3125 385.421875 331.84375 388.78125 334.234375 391.300781 C 334.429688 391.507812 334.601562 391.738281 334.808594 391.933594 C 335.011719 392.125 335.230469 392.292969 335.449219 392.476562 C 338.28125 394.828125 342.007812 396.132812 346.011719 395.730469 C 349.382812 395.390625 352.820312 395.179688 356.359375 395.179688 C 380.253906 395.179688 401.132812 414.152344 404.425781 437.941406 C 404.722656 440.082031 404.929688 442.246094 404.929688 444.453125 C 404.929688 471.203125 378.886719 493.027344 352.839844 493.027344 C 351.882812 493.027344 350.953125 492.941406 350.015625 492.890625 C 323.070312 491.503906 302.503906 470.570312 298.5625 444.859375 C 298.105469 441.894531 296.648438 439.335938 294.625 437.351562 C 294.117188 436.851562 293.578125 436.390625 293 435.972656 C 292.902344 435.90625 292.800781 435.839844 292.703125 435.769531 C 290.347656 434.160156 287.519531 433.191406 284.519531 433.191406 L 118.925781 433.191406 C 110.433594 433.191406 103.933594 440.597656 104.816406 449.046875 C 109.824219 497.015625 127.734375 533.566406 154.386719 560.75 C 154.558594 560.925781 154.730469 561.105469 154.90625 561.28125 C 161.359375 567.804688 168.316406 573.78125 175.730469 579.238281 C 222.480469 613.652344 287.175781 627.472656 355.65625 627.472656 Z M 572.382812 425.285156 C 572.769531 433.917969 564.761719 441.265625 556.402344 441.265625 C 547.441406 441.265625 540.808594 433.945312 540.421875 425.285156 C 540.035156 416.65625 548.042969 409.304688 556.402344 409.304688 C 565.359375 409.304688 571.996094 416.628906 572.382812 425.285156 Z M 511.703125 531.578125 C 515.035156 528.648438 518.210938 525.539062 521.191406 522.25 C 522.675781 520.613281 524.070312 518.910156 525.480469 517.210938 C 525.652344 516.988281 525.839844 516.742188 526.035156 516.472656 C 526.613281 515.683594 527.175781 514.886719 527.726562 514.082031 C 530.300781 510.335938 532.632812 506.425781 534.6875 502.371094 C 535.230469 501.292969 535.757812 500.207031 536.265625 499.113281 C 536.546875 498.503906 538.019531 494.695312 536.601562 498.457031 C 537.480469 496.125 538.390625 493.820312 539.160156 491.453125 C 540.628906 486.945312 541.792969 482.34375 542.667969 477.683594 C 542.917969 476.363281 543.128906 475.039062 543.34375 473.714844 C 543.367188 473.566406 543.382812 473.46875 543.402344 473.347656 C 543.417969 473.132812 543.441406 472.875 543.472656 472.523438 C 543.730469 469.695312 543.960938 466.878906 544.089844 464.042969 C 544.496094 455.085938 551.085938 448.464844 560.070312 448.0625 C 568.429688 447.6875 576.429688 455.679688 576.050781 464.042969 C 574.988281 487.457031 568.699219 510.738281 555.324219 530.210938 C 543.039062 548.09375 526.582031 562.289062 507.875 573.144531 C 500.132812 577.636719 490.710938 574.707031 486.007812 567.414062 C 481.339844 560.171875 484.507812 549.746094 491.742188 545.546875 C 495.777344 543.207031 499.726562 540.726562 503.542969 538.035156 C 504.492188 537.371094 505.421875 536.671875 506.367188 535.996094 C 506.523438 535.886719 506.574219 535.855469 506.679688 535.78125 C 506.738281 535.730469 506.75 535.722656 506.816406 535.667969 C 508.460938 534.324219 510.105469 532.984375 511.703125 531.578125 Z M 511.703125 531.578125 " fill-opacity="1" fill-rule="nonzero"/></g><path fill="#ecedea" d="M 506.683594 535.78125 C 506.578125 535.855469 506.527344 535.890625 506.371094 535.996094 C 505.425781 536.671875 504.496094 537.371094 503.546875 538.039062 C 499.730469 540.726562 495.777344 543.207031 491.746094 545.550781 C 484.511719 549.75 481.34375 560.175781 486.011719 567.414062 C 490.710938 574.707031 500.136719 577.640625 507.875 573.148438 C 526.582031 562.289062 543.039062 548.097656 555.324219 530.214844 C 568.703125 510.742188 574.988281 487.460938 576.054688 464.046875 C 576.433594 455.683594 568.429688 447.691406 560.070312 448.066406 C 551.089844 448.46875 544.496094 455.085938 544.089844 464.046875 C 543.960938 466.878906 543.734375 469.699219 543.476562 472.527344 C 543.445312 472.878906 543.421875 473.132812 543.40625 473.351562 C 543.386719 473.46875 543.367188 473.570312 543.34375 473.71875 C 543.132812 475.042969 542.917969 476.367188 542.671875 477.6875 C 541.796875 482.34375 540.632812 486.949219 539.164062 491.453125 C 538.390625 493.824219 537.480469 496.128906 536.601562 498.457031 C 538.023438 494.699219 536.550781 498.507812 536.269531 499.117188 C 535.761719 500.210938 535.230469 501.296875 534.6875 502.371094 C 532.632812 506.425781 530.304688 510.339844 527.730469 514.085938 C 527.175781 514.886719 526.613281 515.6875 526.039062 516.476562 C 525.84375 516.746094 525.65625 516.988281 525.480469 517.214844 C 524.070312 518.910156 522.675781 520.617188 521.195312 522.253906 C 518.210938 525.542969 515.035156 528.648438 511.703125 531.582031 C 510.109375 532.988281 508.464844 534.324219 506.820312 535.671875 C 506.75 535.722656 506.742188 535.734375 506.683594 535.78125 Z M 525.390625 517.328125 C 524.773438 518.121094 524.503906 518.40625 525.390625 517.328125 Z M 556.402344 409.304688 C 565.363281 409.304688 571.996094 416.628906 572.382812 425.285156 C 572.769531 433.917969 564.761719 441.265625 556.402344 441.265625 C 547.441406 441.265625 540.808594 433.945312 540.421875 425.285156 C 540.035156 416.65625 548.042969 409.304688 556.402344 409.304688 Z M 556.402344 409.304688 " fill-opacity="1" fill-rule="nonzero"/></svg>