<svg xmlns="http://www.w3.org/2000/svg" xmlns:xlink="http://www.w3.org/1999/xlink" width="1000" zoomAndPan="magnify" viewBox="0 0 750 749.999995" height="1000" preserveAspectRatio="xMidYMid meet" version="1.0"><defs><clipPath id="629838f476"><path d="M 91 75.730469 L 685 75.730469 L 685 674.980469 L 91 674.980469 Z M 91 75.730469 " clip-rule="nonzero"/></clipPath><clipPath id="19199fdbc4"><path d="M 97 82 L 685 82 L 685 674.980469 L 97 674.980469 Z M 97 82 " clip-rule="nonzero"/></clipPath><clipPath id="10a0c88f05"><path d="M 91 75.730469 L 632 75.730469 L 632 631 L 91 631 Z M 91 75.730469 " clip-rule="nonzero"/></clipPath></defs><g clip-path="url(#629838f476)"><path fill="#8c9b28" d="M 681.726562 153.5625 L 391.542969 663.582031 C 387.53125 670.636719 380.042969 674.992188 371.929688 674.992188 L 166.972656 674.992188 C 161.109375 674.992188 155.59375 672.691406 151.457031 668.769531 L 151.46875 668.824219 L 100.882812 626.882812 C 99.667969 626.046875 98.519531 625.128906 97.484375 624.066406 C 97.472656 624.054688 97.460938 624.039062 97.449219 624.027344 C 96.132812 622.671875 94.96875 621.152344 94.011719 619.472656 C 90 612.414062 90.089844 603.75 94.242188 596.773438 L 255.65625 325.664062 C 215.738281 327.015625 167.125 328.667969 166.972656 328.667969 C 162.257812 328.667969 157.722656 327.128906 153.917969 324.417969 L 153.898438 324.488281 L 97.945312 278.21875 C 93.546875 273.96875 91.0625 268.113281 91.0625 261.992188 L 91.0625 98.296875 C 91.0625 85.835938 101.167969 75.730469 113.632812 75.730469 L 608.769531 75.730469 C 615.039062 75.730469 620.910156 78.355469 625.121094 82.796875 L 625.132812 82.78125 L 675.324219 124.144531 C 676.0625 124.679688 676.761719 125.261719 677.433594 125.886719 L 677.785156 126.175781 L 677.769531 126.179688 C 679.25 127.605469 680.558594 129.234375 681.621094 131.058594 C 685.660156 138.007812 685.703125 146.582031 681.726562 153.5625 Z M 681.726562 153.5625 " fill-opacity="1" fill-rule="nonzero"/></g><g clip-path="url(#19199fdbc4)"><path fill="#000000" d="M 681.726562 153.5625 L 391.542969 663.582031 C 387.53125 670.636719 380.042969 674.992188 371.929688 674.992188 L 166.972656 674.992188 C 161.109375 674.992188 155.59375 672.691406 151.457031 668.769531 L 151.46875 668.828125 L 100.882812 626.882812 C 104.578125 629.421875 108.992188 630.886719 113.632812 630.886719 L 318.589844 630.886719 C 326.703125 630.886719 334.191406 626.527344 338.203125 619.476562 L 628.386719 109.457031 C 632.359375 102.476562 632.320312 93.902344 628.277344 86.953125 C 627.390625 85.425781 626.3125 84.050781 625.121094 82.796875 L 625.132812 82.78125 L 675.324219 124.144531 C 676.0625 124.679688 676.761719 125.261719 677.433594 125.886719 L 677.785156 126.175781 L 677.769531 126.179688 C 679.25 127.605469 680.558594 129.234375 681.621094 131.058594 C 685.660156 138.007812 685.703125 146.582031 681.726562 153.5625 Z M 254.8125 279.753906 C 254.457031 279.777344 254.097656 279.800781 253.738281 279.8125 C 253.738281 279.8125 113.886719 284.5625 113.632812 284.5625 C 107.789062 284.5625 102.164062 282.292969 97.949219 278.21875 L 153.898438 324.488281 L 153.917969 324.417969 C 157.726562 327.128906 162.257812 328.667969 166.976562 328.667969 C 167.125 328.667969 215.742188 327.015625 255.65625 325.664062 L 284.4375 277.324219 Z M 254.8125 279.753906 " fill-opacity="1" fill-rule="nonzero"/></g><g clip-path="url(#10a0c88f05)"><path fill="#8c9b28" d="M 318.585938 630.886719 C 326.699219 630.886719 334.191406 626.53125 338.199219 619.476562 L 628.386719 109.457031 C 632.359375 102.476562 632.320312 93.902344 628.277344 86.953125 C 627.390625 85.425781 626.3125 84.050781 625.121094 82.796875 C 620.914062 78.355469 615.039062 75.730469 608.769531 75.730469 L 113.632812 75.730469 C 101.167969 75.730469 91.0625 85.835938 91.0625 98.296875 L 91.0625 261.992188 C 91.0625 268.113281 93.546875 273.96875 97.945312 278.21875 C 102.164062 282.292969 107.789062 284.558594 113.632812 284.558594 C 113.886719 284.558594 253.738281 279.8125 253.738281 279.8125 C 254.097656 279.800781 254.457031 279.777344 254.8125 279.753906 L 284.4375 277.324219 L 255.65625 325.664062 L 94.242188 596.773438 C 90.089844 603.75 90 612.414062 94.011719 619.472656 C 94.96875 621.152344 96.132812 622.671875 97.449219 624.027344 C 97.460938 624.039062 97.472656 624.054688 97.484375 624.066406 C 98.519531 625.128906 99.667969 626.046875 100.882812 626.882812 C 104.578125 629.421875 108.992188 630.886719 113.632812 630.886719 Z M 454.972656 372.417969 C 451.738281 378.105469 448.503906 383.789062 445.265625 389.476562 C 422.117188 430.167969 398.964844 470.855469 375.8125 511.546875 C 371.136719 519.765625 360.691406 521.859375 352.65625 517.617188 C 344.511719 513.3125 342.203125 502.15625 346.585938 494.460938 C 349.820312 488.773438 353.054688 483.085938 356.292969 477.402344 C 379.441406 436.710938 402.59375 396.023438 425.742188 355.332031 C 430.421875 347.113281 440.867188 345.015625 448.898438 349.261719 C 457.046875 353.5625 459.351562 364.71875 454.972656 372.417969 Z M 462.769531 341.414062 C 453.28125 341.414062 446.253906 333.65625 445.84375 324.488281 C 445.433594 315.347656 453.914062 307.5625 462.769531 307.5625 C 472.257812 307.5625 479.28125 315.316406 479.695312 324.488281 C 480.101562 333.628906 471.621094 341.414062 462.769531 341.414062 Z M 462.769531 341.414062 " fill-opacity="1" fill-rule="nonzero"/></g><path fill="#ecedea" d="M 454.972656 372.417969 C 451.738281 378.105469 448.503906 383.789062 445.265625 389.476562 C 422.117188 430.167969 398.964844 470.855469 375.8125 511.546875 C 371.136719 519.765625 360.691406 521.859375 352.65625 517.617188 C 344.511719 513.3125 342.203125 502.15625 346.585938 494.460938 C 349.820312 488.773438 353.054688 483.085938 356.292969 477.402344 C 379.441406 436.710938 402.59375 396.023438 425.742188 355.332031 C 430.421875 347.113281 440.867188 345.015625 448.898438 349.261719 C 457.046875 353.5625 459.351562 364.71875 454.972656 372.417969 Z M 462.769531 307.5625 C 453.914062 307.5625 445.433594 315.347656 445.84375 324.488281 C 446.253906 333.65625 453.28125 341.414062 462.769531 341.414062 C 471.621094 341.414062 480.101562 333.628906 479.695312 324.488281 C 479.285156 315.316406 472.257812 307.5625 462.769531 307.5625 Z M 462.769531 307.5625 " fill-opacity="1" fill-rule="nonzero"/></svg>